#!OML:ASF F:\VICON\USERDATA\INSTALL\rory3\rory3.ASF
:FULLY-SPECIFIED
:DEGREES
307
root -8.83898 17.4786 8.71674 19.5345 0.45936 17.7633
lowerback 32.4417 -0.193265 8.06649
upperback 9.02811 2.93103 6.42211
thorax -6.64804 1.33446 1.47433
lowerneck -4.6955 -13.7777 -16.8498
upperneck 22.6512 -18.1252 6.95972
head 10.2259 -9.01953 2.98368
rclavicle 3.18055e-015 3.02153e-014
rhumerus 6.37989 -10.5629 -59.834
rradius 34.5358
rwrist 5.80565
rhand -18.9963 7.93259
rfingers 7.12502
rthumb 7.3087 -21.9212
lclavicle 3.18055e-015 3.02153e-014
lhumerus -30.4881 -11.7453 88.657
lradius 56.0298
lwrist 2.8017
lhand -20.7907 23.0064
lfingers 7.12502
lthumb 5.57638 52.913
rfemur -52.0334 -11.6116 0.273726
rtibia 40.853
rfoot -3.38041 -7.57104
rtoes 1.95751
lfemur -22.158 0.157713 -30.9599
ltibia 20.5822
lfoot -11.652 -13.321
ltoes -7.41947
308
root -8.90918 17.4923 8.75944 20.0493 0.765704 18.176
lowerback 32.932 -0.438606 8.45111
upperback 9.19125 2.79824 6.44705
thorax -6.63218 1.27557 1.348
lowerneck -5.21882 -13.9848 -16.7426
upperneck 22.5702 -18.3717 7.11385
head 10.3289 -9.09054 2.94346
rclavicle -2.54444e-014 -4.77083e-014
rhumerus 7.63849 -10.0545 -59.1405
rradius 34.344
rwrist 6.01743
rhand -19.648 7.83425
rfingers 7.12502
rthumb 6.67964 -22.0404
lclavicle -2.54444e-014 -4.77083e-014
lhumerus -30.5879 -12.315 88.6743
lradius 56.0204
lwrist 2.91024
lhand -20.7007 22.698
lfingers 7.12502
lthumb 5.66329 52.6023
rfemur -52.3149 -11.7359 0.024105
rtibia 41.0869
rfoot -3.70584 -8.01707
rtoes 3.72899
lfemur -22.6017 0.568938 -31.1997
ltibia 20.6937
lfoot -11.3276 -13.5678
ltoes -7.38536
309
root -8.9752 17.4941 8.78873 20.9099 0.578781 18.4189
lowerback 33.2865 -0.412835 8.6805
upperback 9.22936 2.93883 6.43581
thorax -6.70312 1.33736 1.16974
lowerneck -5.18103 -14.1374 -16.6913
upperneck 22.031 -18.6298 7.4459
head 10.1882 -9.1768 3.01629
rclavicle -6.99722e-014 3.18055e-015
rhumerus 8.67375 -9.50214 -58.2986
rradius 34.2899
rwrist 6.02964
rhand -19.9899 7.3812
rfingers 7.12502
rthumb 6.34955 -22.5036
lclavicle -6.99722e-014 3.18055e-015
lhumerus -30.7604 -12.8656 88.7443
lradius 55.9967
lwrist 3.0716
lhand -20.4604 22.37
lfingers 7.12502
lthumb 5.8953 52.268
rfemur -53.3282 -11.7807 0.045302
rtibia 41.3368
rfoot -3.72109 -8.0661
rtoes 4.07272
lfemur -23.3584 1.0715 -31.3923
ltibia 20.4869
lfoot -10.9194 -13.3818
ltoes -7.27559
310
root -9.04357 17.495 8.8164 21.7817 0.50014 18.668
lowerback 33.6325 -0.362634 8.95289
upperback 9.27299 3.13125 6.49877
thorax -6.76292 1.42278 1.02967
lowerneck -4.80264 -14.2678 -16.3494
upperneck 20.8435 -18.8399 7.50635
head 9.68823 -9.26487 3.00321
rclavicle -9.54166e-015 -3.49861e-014
rhumerus 9.59151 -9.26491 -57.3395
rradius 34.3804
rwrist 6.19037
rhand -19.7888 6.51533
rfingers 7.12502
rthumb 6.54374 -23.3636
lclavicle -9.54166e-015 -3.49861e-014
lhumerus -30.8391 -13.3865 88.9321
lradius 55.9025
lwrist 2.86111
lhand -20.6527 21.6751
lfingers 7.12502
lthumb 5.70966 51.5782
rfemur -54.2935 -11.8405 0.0554633
rtibia 41.5266
rfoot -3.61315 -8.28206
rtoes 4.16272
lfemur -24.1304 1.35853 -31.5095
ltibia 20.417
lfoot -10.4375 -13.0949
ltoes -5.7121
311
root -9.11584 17.5067 8.86098 22.3469 0.900907 19.113
lowerback 34.1013 -0.617181 9.4085
upperback 9.39907 3.02847 6.5784
thorax -6.76969 1.37699 0.918104
lowerneck -4.93797 -14.3988 -16.0559
upperneck 20.18 -18.9737 7.42361
head 9.45383 -9.31472 2.91721
rclavicle -6.04305e-014 -5.24792e-014
rhumerus 10.643 -9.07366 -56.4388
rradius 34.493
rwrist 6.32086
rhand -19.2878 5.55423
rfingers 7.12502
rthumb 7.02736 -24.3091
lclavicle -6.04305e-014 -5.24792e-014
lhumerus -30.8494 -13.9088 89.0644
lradius 55.7873
lwrist 2.67492
lhand -21.0826 20.727
lfingers 7.12502
lthumb 5.29459 50.6409
rfemur -54.5762 -12.0612 -0.185935
rtibia 41.7154
rfoot -3.74488 -8.67809
rtoes 5.28369
lfemur -24.4216 1.50781 -31.6746
ltibia 20.3186
lfoot -9.72715 -13.1013
ltoes -3.81701
312
root -9.17956 17.5071 8.8963 23.3988 0.657618 19.2743
lowerback 34.1481 -0.562589 9.59338
upperback 9.47614 3.15537 6.64587
thorax -6.68725 1.43755 0.852486
lowerneck -5.64947 -14.5649 -16.3472
upperneck 20.5044 -19.1157 7.5934
head 9.76553 -9.35627 2.92677
rclavicle 1.59028e-014 -4.77083e-014
rhumerus 11.7835 -8.72994 -55.5491
rradius 34.4236
rwrist 6.42002
rhand -19.3074 5.38283
rfingers 7.12502
rthumb 7.00844 -24.4811
lclavicle 1.59028e-014 -4.77083e-014
lhumerus -30.9716 -14.3576 89.163
lradius 55.7126
lwrist 2.84695
lhand -20.2507 20.5554
lfingers 7.12502
lthumb 6.0978 50.4477
rfemur -55.7741 -12.156 -0.0315306
rtibia 41.8294
rfoot -3.77128 -8.62459
rtoes 5.62676
lfemur -25.4794 1.81274 -31.7724
ltibia 20.3797
lfoot -9.01977 -12.547
ltoes -3.83084
313
root -9.24779 17.5207 8.9413 23.8577 1.19613 19.7597
lowerback 34.9004 -0.991249 10.1709
upperback 9.40418 2.95053 6.71014
thorax -6.88641 1.33182 0.758062
lowerneck -6.41572 -14.7873 -16.5486
upperneck 21.1342 -19.2824 7.44089
head 10.1593 -9.42238 2.80291
rclavicle 3.18055e-014 3.02153e-014
rhumerus 12.8315 -8.56881 -54.6313
rradius 34.0781
rwrist 6.72469
rhand -19.8095 6.02614
rfingers 7.12502
rthumb 6.52377 -23.8534
lclavicle 3.18055e-014 3.02153e-014
lhumerus -31.2451 -14.8675 89.414
lradius 55.6844
lwrist 3.4764
lhand -20.0559 20.3199
lfingers 7.12502
lthumb 6.28583 50.2067
rfemur -55.8583 -12.6623 -0.173589
rtibia 41.9922
rfoot -4.1108 -8.85551
rtoes 5.64377
lfemur -25.6883 2.04613 -31.9576
ltibia 20.2692
lfoot -8.12504 -12.5211
ltoes -3.7064
